<svg xmlns="http://www.w3.org/2000/svg" width="94" height="94" viewBox="0 0 94 94">
  <g id="Group_32769" data-name="Group 32769" transform="translate(-279 -3659)">
    <rect id="Rectangle_21903" data-name="Rectangle 21903" width="94" height="94" rx="9" transform="translate(279 3659)" fill="#dc2e27"/>
    <path id="icons8_lecture" d="M42.948,5a3.546,3.546,0,0,0-1.78,6.621v4.061h3.561V11.621A3.546,3.546,0,0,0,42.948,5ZM5.561,17.463v3.561H9.845l2.837,7.121H41.168l2.838-7.121h4.284V17.463Zm7.845,3.561H40.445l-1.391,3.561H14.8Zm-4.284,8.9a7.121,7.121,0,1,0,7.121,7.121A7.144,7.144,0,0,0,9.121,29.925Zm17.8,0a7.121,7.121,0,1,0,7.121,7.121A7.144,7.144,0,0,0,26.925,29.925Zm17.8,0a7.121,7.121,0,1,0,7.121,7.121A7.144,7.144,0,0,0,44.729,29.925ZM9.121,33.486a3.561,3.561,0,1,1-3.561,3.561A3.532,3.532,0,0,1,9.121,33.486Zm17.8,0a3.561,3.561,0,1,1-3.561,3.561A3.532,3.532,0,0,1,26.925,33.486Zm17.8,0a3.561,3.561,0,1,1-3.561,3.561A3.532,3.532,0,0,1,44.729,33.486Z" transform="translate(299 3681)" fill="#fff"/>
  </g>
</svg>
