<svg xmlns="http://www.w3.org/2000/svg" width="94" height="94" viewBox="0 0 94 94">
  <g id="Group_32771" data-name="Group 32771" transform="translate(-854 -4128)">
    <rect id="Rectangle_21903" data-name="Rectangle 21903" width="94" height="94" rx="9" transform="translate(854 4128)" fill="#dc2e27"/>
    <path id="icons8_batch_assign" d="M20.278,4a7.147,7.147,0,0,0-4.2,12.935,9.6,9.6,0,0,0-4.156,3.979A7.742,7.742,0,0,0,5.89,34.925,9.984,9.984,0,0,0,0,43.946V48.88a1.2,1.2,0,0,0,.485.96,8.657,8.657,0,0,0,2.33,1,26.155,26.155,0,0,0,7.325.871,26.154,26.154,0,0,0,7.325-.871c.163-.047.284-.1.429-.149v.294a1.191,1.191,0,0,0,.5.974c.3.219,3.229,2.139,11.425,2.139a40.078,40.078,0,0,0,5.307-.335,14.485,14.485,0,0,1-.978-2.274,39.849,39.849,0,0,1-4.329.224c-5.619,0-8.48-.965-9.543-1.44V45.236a9.307,9.307,0,0,1,9.543-9.03,9.824,9.824,0,0,1,6.332,2.316,14.655,14.655,0,0,1,1.552-1.8,12.273,12.273,0,0,0-3.21-1.948,8.33,8.33,0,0,0-.433-14.09,7.138,7.138,0,0,1,11.453,1.137A7.725,7.725,0,0,0,43.445,33.28a14.092,14.092,0,0,1,2.814-.578,5.368,5.368,0,1,1,5.61.54,14.638,14.638,0,0,1,2.656,1.1,7.738,7.738,0,0,0-6.8-13.433,9.581,9.581,0,0,0-4.277-4.068A7.155,7.155,0,1,0,35.007,17a9.554,9.554,0,0,0-3.252,2.749,7.987,7.987,0,0,0-3.867,0,9.518,9.518,0,0,0-3.4-2.814A7.148,7.148,0,0,0,20.278,4Zm0,2.386a4.771,4.771,0,1,1-4.771,4.771A4.751,4.751,0,0,1,20.278,6.386Zm18.848,0a4.771,4.771,0,1,1-4.771,4.771A4.751,4.751,0,0,1,39.126,6.386ZM20.278,18.314a7.119,7.119,0,0,1,5.3,2.367,8.323,8.323,0,0,0-.457,14.067A11.825,11.825,0,0,0,19.332,39.8a10.156,10.156,0,0,0-4.944-4.874,7.729,7.729,0,0,0-.261-13.107A7.141,7.141,0,0,1,20.278,18.314Zm9.543,3.578a5.964,5.964,0,1,1-5.964,5.964A5.946,5.946,0,0,1,29.821,21.892ZM10.139,23.085a5.368,5.368,0,1,1-5.368,5.368A5.351,5.351,0,0,1,10.139,23.085ZM47.713,35.013A11.928,11.928,0,1,0,59.641,46.942,11.945,11.945,0,0,0,47.713,35.013ZM10.139,36.374a7.684,7.684,0,0,1,7.753,7.572v4.166a3.2,3.2,0,0,1-1.1.443,23.91,23.91,0,0,1-6.654.773,23.911,23.911,0,0,1-6.654-.773,3.2,3.2,0,0,1-1.1-.443V43.946A7.684,7.684,0,0,1,10.139,36.374ZM47.713,37.4a9.543,9.543,0,1,1-9.543,9.543A9.525,9.525,0,0,1,47.713,37.4Zm5.056,3.993L46.338,48.9l-3.877-2.912L41.036,47.9,46.7,52.142l7.884-9.193Z" transform="translate(871.5 4143.5)" fill="#fff" stroke="#fff" stroke-width="1"/>
  </g>
</svg>
