<svg xmlns="http://www.w3.org/2000/svg" width="94" height="94" viewBox="0 0 94 94">
  <g id="Group_32772" data-name="Group 32772" transform="translate(-1433 -4128)">
    <rect id="Rectangle_21903" data-name="Rectangle 21903" width="94" height="94" rx="9" transform="translate(1433 4128)" fill="#dc2e27"/>
    <path id="icons8_Training" d="M13.486,5a3.5,3.5,0,0,0-3.5,3.5V9c0,1.933,1.5,4,3.5,4s3.5-2.067,3.5-4V8.5A3.5,3.5,0,0,0,13.486,5ZM19,5v6H55V38H22v5H50.559a2,2,0,0,0,1.9-1.367L52.666,41H58V11h2V5ZM13.488,16A20.615,20.615,0,0,0,7.1,17.08a2,2,0,0,0-1.33,1.514l-1.7,8.678a4,4,0,0,0,.707,3.145l2.654,3.6-.4,21.469-.482.242A1,1,0,0,0,6,56.613V58h4.088a1,1,0,0,0,.994-.895L12.988,39h1l1.906,18.105a1,1,0,0,0,.994.895H21V56.613a.993.993,0,0,0-.551-.889l-.467-.234L19.906,23.6,24.48,26.66a2,2,0,0,0,1.113.34h9.189a1,1,0,0,0,.975-.771l.209-.9a1,1,0,0,0-.771-1.207l-1.244-.258-.52-.41a1,1,0,0,0-.883-.182l-1.238.336L26.486,23l-5.213-5.215a1.96,1.96,0,0,0-.682-.447A20.688,20.688,0,0,0,13.488,16ZM42,45l7,13h3L48.154,45Z" transform="translate(1448.002 4143)" fill="#fff"/>
  </g>
</svg>
