<svg xmlns="http://www.w3.org/2000/svg" width="94" height="94" viewBox="0 0 94 94">
  <g id="Group_32770" data-name="Group 32770" transform="translate(-279 -4128)">
    <rect id="Rectangle_21903" data-name="Rectangle 21903" width="94" height="94" rx="9" transform="translate(279 4128)" fill="#dc2e27"/>
    <path id="icons8_Mind_Map" d="M40.225,6a5.032,5.032,0,0,0-3.434,8.706l-3.635,6.583a10.868,10.868,0,0,0-8.108,1.661l-8.519-7.012a5.524,5.524,0,1,0-2.337,2.469l7.454,8.138A11.071,11.071,0,0,0,21.2,36.959l-6.727,6.349a6.036,6.036,0,1,0,2.158,2.7L24.3,40.836a10.926,10.926,0,0,0,9.7,2.021l4.539,7.049a5.134,5.134,0,1,0,3.033-1.584L38.358,40.58a11.071,11.071,0,0,0,2.98-4.069l5.976.371a6.033,6.033,0,1,0,.623-3.447l-5.715-1.751a11.071,11.071,0,0,0-4.545-8.466l2.255-7.167q.146.01.293.012A5.032,5.032,0,1,0,40.225,6Z" transform="translate(293.5 4142.5)" fill="none" stroke="#fff" stroke-width="3"/>
  </g>
</svg>
