<svg id="Group_32615" data-name="Group 32615" xmlns="http://www.w3.org/2000/svg" width="223.011" height="69.32" viewBox="0 0 223.011 69.32">
  <g id="Group_32615-2" data-name="Group 32615">
    <path id="Path_63388" data-name="Path 63388" d="M4531.708,3224.527a10.486,10.486,0,0,1-3.205-.479,6.216,6.216,0,0,1-2.374-1.287l1.108-1.957a5.465,5.465,0,0,0,2,1.181,7.437,7.437,0,0,0,2.577.479,3.507,3.507,0,0,0,2.022-.49,1.608,1.608,0,0,0,.7-1.4,1.781,1.781,0,0,0-.711-1.447,7.934,7.934,0,0,0-2.48-1.128,8.166,8.166,0,0,1-3.44-1.788,3.74,3.74,0,0,1-1.054-2.746,3.822,3.822,0,0,1,1.416-3.118,5.816,5.816,0,0,1,3.8-1.16,7.882,7.882,0,0,1,4.6,1.468l-1.086,1.937a5.718,5.718,0,0,0-3.639-1.341,3.263,3.263,0,0,0-2.034.553,1.876,1.876,0,0,0-.714,1.575,1.729,1.729,0,0,0,.714,1.468,10.179,10.179,0,0,0,2.778,1.17,7.459,7.459,0,0,1,3.205,1.714,4.015,4.015,0,0,1-.4,5.681,5.88,5.88,0,0,1-3.779,1.117Zm18.918-1.735a7.163,7.163,0,0,1-9.347,0,6.766,6.766,0,0,1-1.715-4.97v-8.449h2.363v8.47a4.911,4.911,0,0,0,1.043,3.331,4.307,4.307,0,0,0,5.972,0,4.884,4.884,0,0,0,1.053-3.331v-8.47h2.344v8.449a6.779,6.779,0,0,1-1.713,4.97Zm16.106-13.419h2.362V3224.5h-.7l-10.028-10.534v10.364h-2.342v-15.111h.7l10.008,10.471Zm6.3,14.961v-14.961h2.342v14.961Zm8.646-2.149h7.579v2.149h-9.921v-14.961h2.342Zm20.439-12.812a7.686,7.686,0,0,1,5.579,2.129,7.184,7.184,0,0,1,2.194,5.385,7.109,7.109,0,0,1-2.184,5.341,7.716,7.716,0,0,1-5.589,2.107h-5.172v-14.96h5.172Zm0,13.514a6.2,6.2,0,0,0,4.45-1.659,5.692,5.692,0,0,0,1.747-4.321,5.809,5.809,0,0,0-1.768-4.394,6.149,6.149,0,0,0-4.429-1.693H4598.5v12.066h3.618Zm21.824-13.514h1.556v14.961h-1.556v-6.406h-9.368v6.406h-1.553v-14.961h1.553v7.108h9.368Zm16.459,14.961-1.639-3.575H4630.8l-1.64,3.575h-1.619l6.985-15.173h.511l6.983,15.173H4640.4Zm-8.941-5.022h6.643l-3.323-7.3Zm28.1-9.939h1.618l-4.619,15.174h-.554l-4.664-12.023-4.664,12.023h-.551l-4.621-15.174h1.62l3.427,11.428,4.514-11.641h.553l4.516,11.641,3.426-11.428Zm13.946,14.961-1.639-3.575h-7.964l-1.639,3.575h-1.619l6.985-15.173h.511l6.984,15.173h-1.619Zm-8.942-5.022h6.644l-3.322-7.3Zm23.57-9.939h1.555v15.11h-.511l-10.433-11.832v11.683h-1.555v-15.11h.532l10.412,11.833v-11.683Z" transform="translate(-4474.089 -3161.869)" fill="#fff"/>
    <path id="Path_63389" data-name="Path 63389" d="M4232.984,2781.638c1.514-1.183.986-4.918-4.681-5.3-2.583-.173-7.213.382-10.076.525-34.285,1.712-78.613.424-113.68.213-5.816.192-7.7,1.317-9.19,1.4,1-3.456-2.885-1.872-4.694-1.341-2.066.608-4.2,1.383-6.239,1.964l-.071-.258c-.008-.039-.02-.089-.03-.133-.894-3.881-5.639.728-9.673,1.03a5.439,5.439,0,0,0,.611-1.191c.752-1.49,2.381-3.595-.06-4.007-2.778-.47-25.425,5.482-27.078,4.987-.914-.275-5.971-3.892-7.835-4.868-4.291-2.247-13.774-6.992-14.271-11.439-1.361-12.2,39.564-25.512,56.8-18.053,8.7,3.767-4.392,10.87-7.679,12.745a84.1,84.1,0,0,1-8.8,4.163c-4.972,2.126-8.339,2.193-8.4,4.622,2.782,2.175,26.576-9.508,29.89-15.969,8.006-15.6-51.562-12.817-63.522,7.784-3.968,6.838,2.678,11.3,6.624,13.726l13.949,8.513c-2.817,1.605-11.484,3.356-23.582,10.729-10.614,6.468-15.2,16.628-4.523,18.3,9.7,1.517,20.154-3.054,26.562-7.018,3.112-1.926,7.076-5.278,9.061-8.351,3.3-5.11,2.021-8.573-1.179-12.336,1.523-1.107,17.476-4.093,21.547-4.74a5.307,5.307,0,0,0-.572,1.4,3.8,3.8,0,0,0-.687,2.039c.093,1.618,2.226,1.694,3.885,1.4,1.506-.271,2.776-.981,4.143-1.353.665,1.048.719,1.6,2.4,1.506,3.3-.178,6.721-2.206,9.645-2.86-.877,3.7,4.046,1.714,5.883,1.042,2.642-.966,5.945-.932,8.83-1.043,28.408.226,56.7.768,85.072.847l32.3.388c3.188.1,7.251,2.561,9.322.941Zm-182.5,10.594c-6.841,14.617-46.182,21.3-34.719,7,5.4-6.733,22.208-13.561,30.6-16.035C4049.721,2782.208,4052.406,2788.115,4050.479,2792.231Z" transform="translate(-4010.7 -2740.752)" fill="#fff" fill-rule="evenodd"/>
  </g>
</svg>
