<svg xmlns="http://www.w3.org/2000/svg" width="94" height="94" viewBox="0 0 94 94">
  <g id="Group_32768" data-name="Group 32768" transform="translate(-869 -3659)">
    <rect id="Rectangle_21903" data-name="Rectangle 21903" width="94" height="94" rx="9" transform="translate(869 3659)" fill="#dc2e27"/>
    <path id="icons8_business_strategy" d="M42.742,4.979a1.7,1.7,0,0,0-1.335.681l-4.385,4.385a1.7,1.7,0,1,0,2.409,2.409l1.634-1.635v5.54a9.626,9.626,0,0,1-9.652,9.652H20.059A13.084,13.084,0,0,0,7,39.069V46.45a1.7,1.7,0,1,0,3.407,0V39.069a9.626,9.626,0,0,1,9.652-9.652H31.414A13.084,13.084,0,0,0,44.472,16.358v-5.54l1.635,1.634a1.7,1.7,0,1,0,2.409-2.409l-4.4-4.4a1.7,1.7,0,0,0-1.377-.67ZM18.907,6.114a1.7,1.7,0,0,0-1.189.523L14.381,9.975,11.043,6.637A1.7,1.7,0,1,0,8.635,9.046l3.338,3.338L8.635,15.722a1.7,1.7,0,1,0,2.409,2.409l3.338-3.338,3.338,3.338a1.7,1.7,0,1,0,2.408-2.408l-3.338-3.338,3.338-3.338a1.7,1.7,0,0,0-1.22-2.932ZM38.795,34.527A6.762,6.762,0,0,0,33.689,36.7a7.169,7.169,0,0,0,0,9.288,7.093,7.093,0,0,0,10.211,0,7.169,7.169,0,0,0,0-9.288A6.762,6.762,0,0,0,38.795,34.527Zm0,3.407a3.139,3.139,0,0,1,2.559,1.025,3.772,3.772,0,0,1,0,4.764,3.139,3.139,0,0,1-2.559,1.025,3.139,3.139,0,0,1-2.559-1.025,3.772,3.772,0,0,1,0-4.764A3.139,3.139,0,0,1,38.795,37.933Z" transform="translate(888 3679.022)" fill="#fff"/>
  </g>
</svg>
