<svg xmlns="http://www.w3.org/2000/svg" xmlns:xlink="http://www.w3.org/1999/xlink" width="974" height="821" viewBox="0 0 974 821">
  <defs>
    <clipPath id="clip-path">
      <rect id="Rectangle_7527" data-name="Rectangle 7527" width="974" height="821" transform="translate(6512.598 1539.912)" fill="#fff"/>
    </clipPath>
  </defs>
  <g id="Mask_Group_129" data-name="Mask Group 129" transform="translate(-6512.598 -1539.912)" clip-path="url(#clip-path)">
    <path id="Path_12" data-name="Path 12" d="M5843.876,3077.939c12.5-9.77,8.139-40.568-38.6-43.7-21.3-1.424-59.485,3.158-83.1,4.331-282.743,14.121-648.318,3.5-937.522,1.755-47.962,1.583-63.474,10.871-75.794,11.513,8.213-28.51-23.782-15.432-38.708-11.055-17.042,5-34.635,11.409-51.459,16.193l-.579-2.127c-.073-.325-.166-.734-.253-1.1-7.372-32.011-46.5,6.006-79.759,8.5,1.689-3.239,4.226-6.344,5.022-9.828,6.208-12.286,19.639-29.651-.485-33.046-22.906-3.877-209.674,45.215-223.316,41.124-7.535-2.265-49.248-32.088-64.619-40.144-35.38-18.522-113.594-57.657-117.689-94.337-11.225-100.625,326.289-210.4,468.41-148.889,71.788,31.066-36.219,89.651-63.335,105.107-23.3,13.271-46.884,23.359-72.558,34.335-40.989,17.528-68.768,18.077-69.244,38.113,22.945,17.933,219.17-78.417,246.505-131.7,66.006-128.646-425.24-105.708-523.866,64.195-32.737,56.386,22.082,93.2,54.618,113.2l115.03,70.216c-23.228,13.237-94.7,27.675-194.475,88.475-87.526,53.339-125.311,137.134-37.3,150.911,79.969,12.5,166.218-25.192,219.058-57.888,25.667-15.879,58.357-43.523,74.723-68.872,27.227-42.14,16.657-70.695-9.727-101.73,12.565-9.131,144.128-33.755,177.7-39.092-2.526,2.839-2.818,7.154-4.708,11.583-2.289,5.363-6.121,8.95-5.665,16.808.764,13.351,18.35,13.974,32.042,11.506,12.415-2.226,22.9-8.087,34.164-11.153,5.473,8.646,5.933,13.173,19.781,12.421,27.226-1.47,55.426-18.2,79.537-23.583-7.234,30.471,33.351,14.134,48.508,8.591,21.8-7.971,49.034-7.685,72.815-8.6,234.287,1.86,467.618,6.335,701.6,6.983l266.335,3.195c26.291.863,59.8,21.12,76.889,7.753ZM4338.764,3165.3c-56.412,120.551-380.857,175.678-286.326,57.743,44.516-55.531,183.15-111.84,252.388-132.241,27.675-8.165,49.821,40.547,33.931,74.5Z" transform="translate(2602.065 -1103.442)" fill="#f0f0f0" fill-rule="evenodd"/>
  </g>
</svg>
