<svg xmlns="http://www.w3.org/2000/svg" width="251.414" height="78.141" viewBox="0 0 251.414 78.141">
  <g id="Group_20155" data-name="Group 20155" transform="translate(0.002 -0.005)">
    <path id="Path_11" data-name="Path 11" d="M4532.416,3226.49a11.817,11.817,0,0,1-3.611-.539,7.022,7.022,0,0,1-2.676-1.45l1.248-2.208a6.148,6.148,0,0,0,2.257,1.333,8.358,8.358,0,0,0,2.912.539,3.951,3.951,0,0,0,2.281-.553,1.818,1.818,0,0,0,.791-1.584,2.007,2.007,0,0,0-.805-1.631,8.948,8.948,0,0,0-2.8-1.271,9.216,9.216,0,0,1-3.877-2.014,4.214,4.214,0,0,1-1.186-3.094,4.306,4.306,0,0,1,1.6-3.514,6.55,6.55,0,0,1,4.281-1.31,8.9,8.9,0,0,1,5.185,1.654l-1.225,2.184a6.449,6.449,0,0,0-4.109-1.512,3.681,3.681,0,0,0-2.293.623,2.121,2.121,0,0,0-.805,1.777,1.953,1.953,0,0,0,.805,1.656,11.556,11.556,0,0,0,3.133,1.321,8.354,8.354,0,0,1,3.612,1.931,4.526,4.526,0,0,1-.455,6.405,6.621,6.621,0,0,1-4.261,1.26Zm21.328-1.956a8.074,8.074,0,0,1-10.536,0,7.635,7.635,0,0,1-1.935-5.6V3209.4h2.665v9.549a5.55,5.55,0,0,0,1.177,3.755,4.855,4.855,0,0,0,6.732,0,5.5,5.5,0,0,0,1.188-3.755v-9.55h2.641v9.525a7.628,7.628,0,0,1-1.931,5.6Zm18.152-15.126h2.665v17.058h-.792l-11.3-11.875v11.684h-2.641v-17.045h.792l11.281,11.8Zm7.1,16.866V3209.4h2.641v16.866Zm9.746-2.424h8.543v2.424H4586.1V3209.4h2.641Zm23.043-14.443a8.663,8.663,0,0,1,6.289,2.4,8.1,8.1,0,0,1,2.47,6.069,8.013,8.013,0,0,1-2.461,6.024,8.7,8.7,0,0,1-6.3,2.375h-5.833V3209.4h5.833Zm0,15.241a6.988,6.988,0,0,0,5.016-1.872,6.415,6.415,0,0,0,1.969-4.871,6.551,6.551,0,0,0-1.992-4.953,6.937,6.937,0,0,0-4.993-1.908h-4.08v13.6h4.079Zm24.6-15.241h1.75v16.866h-1.75v-7.221h-10.561v7.221h-1.75V3209.4h1.75v8.013h10.561Zm18.555,16.866-1.849-4.031h-8.978l-1.85,4.031h-1.824l7.877-17.106h.575l7.878,17.106h-1.824Zm-10.082-5.661h7.489l-3.744-8.229Zm31.681-11.2h1.824l-5.188,17.1h-.623l-5.257-13.554-5.255,13.554h-.623l-5.209-17.106h1.825l3.863,12.883,5.09-13.125h.623l5.09,13.125Zm15.721,16.867-1.85-4.031h-8.978l-1.849,4.031h-1.826l7.877-17.106h.576l7.877,17.106Zm-10.082-5.661h7.489l-3.746-8.229Zm26.573-11.205h1.751v17.034h-.575l-11.762-13.338v13.171h-1.752v-17.047h.6l11.737,13.34V3209.4Z" transform="translate(-4467.463 -3155.849)" fill="#dc2e27"/>
    <path id="Path_12" data-name="Path 12" d="M4261.289,2786.844c1.712-1.335,1.112-5.547-5.277-5.973-2.911-.2-8.133.431-11.358.593-38.65,1.93-88.624.478-128.157.24-6.558.216-8.677,1.486-10.361,1.574,1.124-3.9-3.253-2.11-5.292-1.512-2.329.685-4.735,1.56-7.035,2.214l-.078-.291c-.01-.044-.022-.1-.036-.151-1.007-4.375-6.354.821-10.9,1.163a6.1,6.1,0,0,0,.685-1.343c.856-1.68,2.686-4.053-.067-4.517-3.132-.531-28.662,6.18-30.526,5.622-1.028-.31-6.732-4.388-8.833-5.48-4.836-2.533-15.529-7.877-16.088-12.9-1.541-13.754,44.6-28.77,64.031-20.353,9.813,4.247-4.951,12.254-8.658,14.367a95.134,95.134,0,0,1-9.918,4.694c-5.6,2.4-9.4,2.471-9.465,5.209,3.137,2.45,29.968-10.72,33.7-18,9.023-17.586-58.13-14.45-71.611,8.775-4.475,7.706,3.019,12.739,7.467,15.474l15.724,9.59c-3.175,1.81-12.946,3.783-26.584,12.1-11.965,7.292-17.125,18.747-5.1,20.629,10.931,1.713,22.721-3.444,29.944-7.914a35.818,35.818,0,0,0,10.216-9.418c3.721-5.761,2.277-9.664-1.33-13.907,1.713-1.249,19.694-4.615,24.292-5.345a5.958,5.958,0,0,0-.644,1.584,4.289,4.289,0,0,0-.774,2.3c.1,1.825,2.509,1.909,4.38,1.572,1.7-.3,3.13-1.106,4.67-1.524.749,1.182.812,1.8,2.7,1.7,3.722-.2,7.576-2.488,10.873-3.224-.989,4.164,4.559,1.931,6.631,1.175a34.019,34.019,0,0,1,9.955-1.177c32.024.253,63.924.867,95.908.954l36.406.437c3.6.118,8.176,2.887,10.512,1.06Zm-205.748,11.941c-7.707,16.479-52.06,24.016-39.141,7.893,6.084-7.592,25.037-15.287,34.5-18.077,3.795-1.123,6.826,5.539,4.651,10.179Z" transform="translate(-4010.7 -2740.752)" fill="#dc2e27" fill-rule="evenodd"/>
  </g>
</svg>
